<svg width="40" height="40" viewBox="0 0 40 40" fill="none" xmlns="http://www.w3.org/2000/svg">
<path d="M37.2229 34.3828C38.4756 32.7036 39.3353 30.7644 39.7384 28.7085C40.1416 26.6526 40.078 24.5324 39.5523 22.5044C39.0266 20.4763 38.0523 18.5922 36.7012 16.9911C35.3501 15.3899 33.6567 14.1126 31.746 13.2535C31.3298 10.8589 30.3733 8.59064 28.9492 6.62114C27.5251 4.65163 25.6708 3.03266 23.5272 1.88724C21.3837 0.741816 19.0073 0.100082 16.5785 0.0107955C14.1498 -0.0784908 11.7327 0.38702 9.51084 1.37196C7.28898 2.35689 5.32083 3.83534 3.75596 5.69496C2.19108 7.55459 1.07065 9.74646 0.479784 12.104C-0.11108 14.4616 -0.156825 16.9228 0.346024 19.3007C0.848874 21.6786 1.88709 23.9106 3.38178 25.8271L0.603327 28.5857C0.325967 28.8669 0.138079 29.2238 0.0633721 29.6116C-0.0113345 29.9994 0.0304876 30.4006 0.183561 30.7646C0.333518 31.1297 0.588172 31.4422 0.91543 31.6628C1.24269 31.8833 1.62791 32.0021 2.02254 32.004H13.3962C14.5289 34.392 16.3146 36.4104 18.5468 37.8255C20.779 39.2406 23.3663 39.9945 26.0092 40H38.0025C38.3971 39.998 38.7823 39.8793 39.1096 39.6587C39.4369 39.4382 39.6915 39.1257 39.8415 38.7606C39.9945 38.3966 40.0364 37.9954 39.9617 37.6076C39.8869 37.2198 39.6991 36.8628 39.4217 36.5817L37.2229 34.3828ZM12.017 26.007C12.0197 26.6765 12.0732 27.3447 12.1769 28.006H6.83985L7.53946 27.3264C7.72682 27.1405 7.87552 26.9195 7.977 26.6759C8.07848 26.4323 8.13073 26.171 8.13073 25.9071C8.13073 25.6432 8.07848 25.3819 7.977 25.1383C7.87552 24.8947 7.72682 24.6736 7.53946 24.4878C6.41921 23.3798 5.53108 22.0595 4.92703 20.6042C4.32297 19.1489 4.0151 17.5878 4.02142 16.0121C4.02142 12.8311 5.285 9.78036 7.53418 7.53106C9.78337 5.28175 12.8339 4.0181 16.0147 4.0181C18.4967 4.00319 20.921 4.7665 22.9467 6.20073C24.9725 7.63497 26.4979 9.66802 27.3084 12.0141C26.8687 12.0141 26.4489 12.0141 26.0092 12.0141C22.2982 12.0141 18.7392 13.4883 16.1152 16.1125C13.4911 18.7367 12.017 22.2959 12.017 26.007ZM33.0852 36.002L33.1852 36.102H26.0092C23.6971 36.0978 21.458 35.2922 19.6733 33.8223C17.8886 32.3524 16.6687 30.3092 16.2214 28.0407C15.7741 25.7722 16.1271 23.4188 17.2202 21.3814C18.3133 19.344 20.079 17.7486 22.2164 16.867C24.3538 15.9855 26.7307 15.8722 28.9422 16.5467C31.1537 17.2211 33.063 18.6414 34.3448 20.5657C35.6266 22.49 36.2017 24.7992 35.972 27.0999C35.7423 29.4006 34.7222 31.5505 33.0852 33.1834C32.7086 33.5525 32.4931 34.0555 32.4856 34.5827C32.4867 34.8472 32.5402 35.1088 32.6432 35.3525C32.7461 35.5961 32.8964 35.8169 33.0852 36.002Z" fill="white"/>
</svg>
