<svg width="85" height="85" viewBox="0 0 85 85" fill="none" xmlns="http://www.w3.org/2000/svg">
<circle cx="42.5" cy="42.5" r="42.5" fill="#DEF1FF"/>
<path d="M54.7444 25.8373C53.8744 24.7534 52.4691 24.7534 51.5992 25.8373L39.0183 41.5117L42.1635 45.4303L54.7444 29.7281C55.592 28.672 55.592 26.8933 54.7444 25.8373ZM64.2023 25.8095L42.1635 53.2675L34.4008 43.6238C33.5309 42.54 32.1256 42.54 31.2556 43.6238C30.3857 44.7077 30.3857 46.4586 31.2556 47.5424L40.5797 59.1593C41.4497 60.2432 42.855 60.2432 43.725 59.1593L67.3475 29.7559C68.2175 28.672 68.2175 26.9211 67.3475 25.8373H67.3252C66.4776 24.7256 65.0723 24.7256 64.2023 25.8095ZM18.6525 47.5702L27.9766 59.1871C28.8465 60.271 30.2518 60.271 31.1218 59.1871L32.6832 57.2417L21.7977 43.6238C20.9277 42.54 19.5224 42.54 18.6525 43.6238C17.7825 44.7077 17.7825 46.4864 18.6525 47.5702Z" fill="#9429FF"/>
</svg>
