<svg width="40" height="40" viewBox="0 0 40 40" fill="none" xmlns="http://www.w3.org/2000/svg">
<path d="M2.22222 22.2222H15.5556C16.7778 22.2222 17.7778 21.2222 17.7778 20V2.22222C17.7778 1 16.7778 0 15.5556 0H2.22222C1 0 0 1 0 2.22222V20C0 21.2222 1 22.2222 2.22222 22.2222ZM2.22222 40H15.5556C16.7778 40 17.7778 39 17.7778 37.7778V28.8889C17.7778 27.6667 16.7778 26.6667 15.5556 26.6667H2.22222C1 26.6667 0 27.6667 0 28.8889V37.7778C0 39 1 40 2.22222 40ZM24.4444 40H37.7778C39 40 40 39 40 37.7778V20C40 18.7778 39 17.7778 37.7778 17.7778H24.4444C23.2222 17.7778 22.2222 18.7778 22.2222 20V37.7778C22.2222 39 23.2222 40 24.4444 40ZM22.2222 2.22222V11.1111C22.2222 12.3333 23.2222 13.3333 24.4444 13.3333H37.7778C39 13.3333 40 12.3333 40 11.1111V2.22222C40 1 39 0 37.7778 0H24.4444C23.2222 0 22.2222 1 22.2222 2.22222Z" fill="white"/>
</svg>
