<svg width="85" height="85" viewBox="0 0 85 85" fill="none" xmlns="http://www.w3.org/2000/svg">
<circle cx="42.5" cy="42.5" r="42.5" fill="#DEF1FF"/>
<path opacity="0.4" d="M59.8244 36.3503C59.0138 36.3503 58.3536 35.6566 58.3428 34.7933V32.5208C58.3692 30.5918 57.6737 28.731 56.4098 27.3493C55.1459 25.9675 53.4177 25.1784 51.6067 25.1562H50.0263C49.2081 25.1562 48.5448 24.4497 48.5448 23.5781C48.5448 22.7065 49.2081 22 50.0263 22H51.6067C57.0153 22.0691 61.3656 26.7593 61.3652 32.5208V34.7722C61.3759 35.1868 61.2287 35.5884 60.9571 35.8857C60.6855 36.1829 60.3126 36.3505 59.9232 36.3503H59.8244ZM25.2546 36.3505C24.8635 36.356 24.4866 36.1944 24.2082 35.9018C23.9297 35.6092 23.773 35.2099 23.773 34.7933V32.5208C23.7414 29.7422 24.7555 27.0657 26.589 25.089C28.4225 23.1122 30.9228 21.9998 33.5316 22H35.1514C35.9697 22 36.633 22.7065 36.633 23.5781C36.633 24.4497 35.9697 25.1562 35.1514 25.1562H33.5514C31.7249 25.1503 29.9732 25.9277 28.691 27.3132C27.4089 28.6987 26.7043 30.5756 26.7362 32.5208V34.7933C26.7254 35.6566 26.0652 36.3505 25.2546 36.3505Z" fill="#9429FF"/>
<path d="M61.306 45.6718V51.5845C61.2427 57.2726 56.9463 61.877 51.6067 61.979H50.0066C49.4401 62.049 48.8861 61.7665 48.5822 61.2525C48.2782 60.7385 48.2782 60.0843 48.5822 59.5703C48.8861 59.0563 49.4401 58.7738 50.0066 58.8438H51.6067C55.3738 58.8322 58.4219 55.5761 58.4219 51.5634V45.6718H61.306ZM36.633 60.4219C36.6224 61.2887 35.9652 61.9887 35.1514 62H33.5316C28.123 61.9309 23.7727 57.2408 23.773 51.4792V45.6718H26.7362V51.5845C26.7361 55.5889 29.7722 58.8417 33.5316 58.8648H35.1514C35.5426 58.8592 35.9195 59.0208 36.1979 59.3134C36.4763 59.606 36.633 60.0053 36.633 60.4219ZM65 44.0937C65 44.9652 64.3367 45.6718 63.5184 45.6718H21.4816C20.6633 45.6718 20 44.9652 20 44.0937C20 43.2221 20.6633 42.5155 21.4816 42.5155H63.4592C63.8623 42.4984 64.2545 42.657 64.5453 42.9548C64.8361 43.2527 65 43.664 65 44.0937Z" fill="#9429FF"/>
<path opacity="0.4" d="M52.7919 38.707V35.9926C52.7919 34.6812 52.3028 33.4235 51.4322 32.4961C50.5617 31.5688 49.3809 31.0479 48.1497 31.0479H36.8503C34.2865 31.0479 32.2081 33.2617 32.2081 35.9926V38.707C32.2183 39.0277 32.46 39.2853 32.7612 39.2961H52.2388C52.5399 39.2853 52.7817 39.0277 52.7919 38.707Z" fill="#9429FF"/>
<path d="M52.7919 45.6717V48.0283C52.7919 50.7593 50.7135 52.9731 48.1497 52.9731H36.8503C34.2865 52.9731 32.2081 50.7593 32.2081 48.0283V45.6717H52.7919Z" fill="#9429FF"/>
</svg>
