<svg width="342" height="60" viewBox="0 0 342 60" fill="none" xmlns="http://www.w3.org/2000/svg">
<g filter="url(#filter0_d_5_37)">
<path d="M122.518 22.41C122.518 23.97 122.203 25.275 121.573 26.325C120.953 27.365 120.093 28.15 118.993 28.68C117.903 29.21 116.653 29.475 115.243 29.475H112.768V36C112.388 36.07 111.988 36.115 111.568 36.135C111.148 36.155 110.783 36.165 110.473 36.165C110.183 36.165 109.818 36.155 109.378 36.135C108.938 36.115 108.538 36.07 108.178 36V15.66L108.388 15.465C109.648 15.435 110.823 15.41 111.913 15.39C113.013 15.36 114.123 15.345 115.243 15.345C116.653 15.345 117.903 15.6 118.993 16.11C120.093 16.62 120.953 17.4 121.573 18.45C122.203 19.49 122.518 20.81 122.518 22.41ZM112.768 18.84V26.025C113.208 26.005 113.628 25.99 114.028 25.98C114.428 25.97 114.713 25.965 114.883 25.965C115.703 25.965 116.323 25.775 116.743 25.395C117.173 25.005 117.463 24.535 117.613 23.985C117.763 23.435 117.838 22.91 117.838 22.41C117.838 21.93 117.763 21.415 117.613 20.865C117.463 20.305 117.173 19.835 116.743 19.455C116.323 19.065 115.703 18.87 114.883 18.87C114.563 18.87 114.233 18.87 113.893 18.87C113.563 18.86 113.188 18.85 112.768 18.84ZM138.867 24.495C138.867 25.245 138.692 25.925 138.342 26.535C138.002 27.135 137.567 27.63 137.037 28.02C136.517 28.4 135.987 28.65 135.447 28.77C135.977 28.96 136.417 29.235 136.767 29.595C137.127 29.955 137.432 30.425 137.682 31.005L138.507 32.895C138.687 33.295 138.892 33.67 139.122 34.02C139.352 34.36 139.602 34.65 139.872 34.89C139.592 35.24 139.172 35.56 138.612 35.85C138.062 36.13 137.462 36.27 136.812 36.27C136.162 36.27 135.642 36.115 135.252 35.805C134.862 35.485 134.512 34.975 134.202 34.275L132.867 31.215C132.647 30.715 132.377 30.4 132.057 30.27C131.747 30.14 131.332 30.075 130.812 30.075H130.047V36C129.667 36.07 129.272 36.115 128.862 36.135C128.462 36.155 128.117 36.165 127.827 36.165C127.557 36.165 127.202 36.155 126.762 36.135C126.322 36.115 125.922 36.07 125.562 36V19.635L125.742 19.455C126.922 19.425 128.037 19.4 129.087 19.38C130.137 19.36 131.182 19.35 132.222 19.35C133.432 19.35 134.537 19.51 135.537 19.83C136.547 20.15 137.352 20.685 137.952 21.435C138.562 22.185 138.867 23.205 138.867 24.495ZM130.047 22.605V26.67C130.417 26.66 130.762 26.655 131.082 26.655C131.412 26.645 131.657 26.64 131.817 26.64C132.767 26.64 133.407 26.435 133.737 26.025C134.077 25.605 134.247 25.125 134.247 24.585C134.247 24.065 134.077 23.61 133.737 23.22C133.407 22.83 132.832 22.635 132.012 22.635C131.652 22.635 131.327 22.63 131.037 22.62C130.747 22.61 130.417 22.605 130.047 22.605ZM141.149 27.765C141.149 25.105 141.834 22.99 143.204 21.42C144.584 19.84 146.589 19.05 149.219 19.05C151.899 19.05 153.919 19.835 155.279 21.405C156.649 22.975 157.334 25.095 157.334 27.765C157.334 30.455 156.649 32.575 155.279 34.125C153.909 35.665 151.889 36.435 149.219 36.435C146.549 36.435 144.534 35.655 143.174 34.095C141.824 32.535 141.149 30.425 141.149 27.765ZM145.784 27.765C145.784 28.355 145.824 28.96 145.904 29.58C145.984 30.2 146.144 30.78 146.384 31.32C146.624 31.85 146.974 32.28 147.434 32.61C147.894 32.94 148.499 33.105 149.249 33.105C149.999 33.105 150.604 32.94 151.064 32.61C151.524 32.28 151.869 31.85 152.099 31.32C152.339 30.78 152.499 30.2 152.579 29.58C152.659 28.96 152.699 28.355 152.699 27.765C152.699 27.175 152.659 26.565 152.579 25.935C152.499 25.305 152.339 24.725 152.099 24.195C151.869 23.655 151.524 23.22 151.064 22.89C150.604 22.55 149.999 22.38 149.249 22.38C148.499 22.38 147.894 22.55 147.434 22.89C146.974 23.22 146.624 23.655 146.384 24.195C146.144 24.725 145.984 25.305 145.904 25.935C145.824 26.565 145.784 27.175 145.784 27.765ZM159.546 31.995C160.436 32.555 161.286 32.835 162.096 32.835C162.896 32.835 163.471 32.58 163.821 32.07C164.181 31.56 164.361 30.815 164.361 29.835V19.485C164.721 19.415 165.121 19.37 165.561 19.35C166.001 19.33 166.356 19.32 166.626 19.32C166.926 19.32 167.286 19.33 167.706 19.35C168.126 19.36 168.521 19.405 168.891 19.485V29.655C168.891 31.835 168.421 33.51 167.481 34.68C166.551 35.84 164.951 36.42 162.681 36.42C161.811 36.42 160.936 36.29 160.056 36.03C159.186 35.78 158.511 35.48 158.031 35.13C158.121 34.58 158.296 34.025 158.556 33.465C158.816 32.895 159.146 32.405 159.546 31.995ZM185.415 32.4C185.415 33.77 185.2 34.72 184.77 35.25C184.34 35.78 183.62 36.045 182.61 36.045H175.59C174.78 36.045 174.14 35.815 173.67 35.355C173.2 34.895 172.965 34.27 172.965 33.48V19.665L173.145 19.485H184.86C184.93 19.815 184.97 20.13 184.98 20.43C184.99 20.73 184.995 21.01 184.995 21.27C184.995 21.52 184.965 21.81 184.905 22.14C184.855 22.47 184.77 22.8 184.65 23.13H179.28C178.85 23.13 178.225 23.125 177.405 23.115C177.405 23.415 177.41 23.68 177.42 23.91C177.43 24.13 177.435 24.395 177.435 24.705V25.935C178.245 25.915 178.86 25.905 179.28 25.905H183.255C183.345 26.175 183.405 26.475 183.435 26.805C183.475 27.135 183.495 27.415 183.495 27.645C183.495 27.905 183.475 28.205 183.435 28.545C183.405 28.875 183.345 29.17 183.255 29.43H179.28C179.1 29.43 178.84 29.43 178.5 29.43C178.16 29.43 177.805 29.43 177.435 29.43V30.705C177.435 31.055 177.43 31.35 177.42 31.59C177.41 31.83 177.405 32.12 177.405 32.46V32.49C177.745 32.46 178.06 32.44 178.35 32.43C178.65 32.41 179.015 32.4 179.445 32.4H185.415ZM197.702 26.835C197.702 25.585 197.522 24.565 197.162 23.775C196.812 22.985 196.092 22.59 195.002 22.59C193.902 22.59 193.107 23.04 192.617 23.94C192.137 24.84 191.897 26.145 191.897 27.855C191.897 29.115 192.062 30.1 192.392 30.81C192.722 31.51 193.152 32 193.682 32.28C194.212 32.56 194.777 32.7 195.377 32.7C196.127 32.7 196.877 32.54 197.627 32.22C198.377 31.89 199.057 31.495 199.667 31.035C199.977 31.195 200.272 31.445 200.552 31.785C200.842 32.115 201.092 32.47 201.302 32.85C201.512 33.23 201.652 33.575 201.722 33.885C200.902 34.595 199.902 35.2 198.722 35.7C197.542 36.19 196.202 36.435 194.702 36.435C193.282 36.435 192.092 36.185 191.132 35.685C190.172 35.185 189.407 34.515 188.837 33.675C188.277 32.835 187.872 31.91 187.622 30.9C187.382 29.88 187.262 28.855 187.262 27.825C187.262 25.775 187.632 24.105 188.372 22.815C189.112 21.525 190.082 20.575 191.282 19.965C192.492 19.355 193.787 19.05 195.167 19.05C196.707 19.05 197.977 19.325 198.977 19.875C199.987 20.415 200.732 21.105 201.212 21.945C201.702 22.775 201.947 23.63 201.947 24.51C201.947 26.14 201.037 26.955 199.217 26.955C198.987 26.955 198.742 26.945 198.482 26.925C198.232 26.895 197.972 26.865 197.702 26.835ZM207.814 24.945C207.814 24.625 207.819 24.33 207.829 24.06C207.839 23.78 207.844 23.47 207.844 23.13C207.634 23.13 207.349 23.135 206.989 23.145C206.629 23.155 206.344 23.16 206.134 23.16H203.299C203.229 22.82 203.184 22.5 203.164 22.2C203.144 21.9 203.134 21.625 203.134 21.375C203.134 21.125 203.144 20.83 203.164 20.49C203.184 20.15 203.229 19.815 203.299 19.485H216.724C216.794 19.745 216.844 20.04 216.874 20.37C216.914 20.69 216.934 20.955 216.934 21.165C216.934 21.805 216.759 22.3 216.409 22.65C216.069 22.99 215.494 23.16 214.684 23.16H213.934C213.734 23.16 213.459 23.155 213.109 23.145C212.769 23.135 212.504 23.13 212.314 23.13C212.314 23.47 212.319 23.78 212.329 24.06C212.339 24.33 212.344 24.625 212.344 24.945V36C212.074 36.06 211.709 36.1 211.249 36.12C210.789 36.15 210.399 36.165 210.079 36.165C209.769 36.165 209.389 36.15 208.939 36.12C208.499 36.1 208.124 36.06 207.814 36V24.945Z" fill="#433AFF"/>
<path d="M228.746 21.51C228.746 21.1 228.751 20.735 228.761 20.415C228.771 20.085 228.776 19.71 228.776 19.29H228.746C228.526 19.29 228.211 19.295 227.801 19.305C227.401 19.315 227.091 19.32 226.871 19.32H223.721C223.651 18.98 223.601 18.645 223.571 18.315C223.551 17.985 223.541 17.69 223.541 17.43C223.541 17.16 223.551 16.86 223.571 16.53C223.601 16.19 223.651 15.85 223.721 15.51H238.421C238.491 15.75 238.546 16.03 238.586 16.35C238.626 16.67 238.646 16.975 238.646 17.265C238.646 18.015 238.451 18.545 238.061 18.855C237.671 19.165 237.061 19.32 236.231 19.32H235.211C234.991 19.32 234.676 19.315 234.266 19.305C233.866 19.295 233.556 19.29 233.336 19.29H233.306C233.306 19.71 233.311 20.085 233.321 20.415C233.331 20.735 233.336 21.1 233.336 21.51V36C232.946 36.07 232.546 36.115 232.136 36.135C231.726 36.155 231.361 36.165 231.041 36.165C230.721 36.165 230.356 36.155 229.946 36.135C229.536 36.115 229.136 36.07 228.746 36V21.51ZM253.565 24.495C253.565 25.245 253.39 25.925 253.04 26.535C252.7 27.135 252.265 27.63 251.735 28.02C251.215 28.4 250.685 28.65 250.145 28.77C250.675 28.96 251.115 29.235 251.465 29.595C251.825 29.955 252.13 30.425 252.38 31.005L253.205 32.895C253.385 33.295 253.59 33.67 253.82 34.02C254.05 34.36 254.3 34.65 254.57 34.89C254.29 35.24 253.87 35.56 253.31 35.85C252.76 36.13 252.16 36.27 251.51 36.27C250.86 36.27 250.34 36.115 249.95 35.805C249.56 35.485 249.21 34.975 248.9 34.275L247.565 31.215C247.345 30.715 247.075 30.4 246.755 30.27C246.445 30.14 246.03 30.075 245.51 30.075H244.745V36C244.365 36.07 243.97 36.115 243.56 36.135C243.16 36.155 242.815 36.165 242.525 36.165C242.255 36.165 241.9 36.155 241.46 36.135C241.02 36.115 240.62 36.07 240.26 36V19.635L240.44 19.455C241.62 19.425 242.735 19.4 243.785 19.38C244.835 19.36 245.88 19.35 246.92 19.35C248.13 19.35 249.235 19.51 250.235 19.83C251.245 20.15 252.05 20.685 252.65 21.435C253.26 22.185 253.565 23.205 253.565 24.495ZM244.745 22.605V26.67C245.115 26.66 245.46 26.655 245.78 26.655C246.11 26.645 246.355 26.64 246.515 26.64C247.465 26.64 248.105 26.435 248.435 26.025C248.775 25.605 248.945 25.125 248.945 24.585C248.945 24.065 248.775 23.61 248.435 23.22C248.105 22.83 247.53 22.635 246.71 22.635C246.35 22.635 246.025 22.63 245.735 22.62C245.445 22.61 245.115 22.605 244.745 22.605ZM261.392 33C261.232 33 261.062 33 260.882 33C260.712 32.99 260.547 32.98 260.387 32.97L259.397 36C259.117 36.07 258.812 36.12 258.482 36.15C258.162 36.18 257.827 36.195 257.477 36.195C257.087 36.195 256.697 36.165 256.307 36.105C255.927 36.055 255.617 35.975 255.377 35.865L255.212 35.625L261.077 19.485C261.557 19.415 262.027 19.37 262.487 19.35C262.957 19.33 263.387 19.32 263.777 19.32C264.127 19.32 264.507 19.33 264.917 19.35C265.337 19.37 265.802 19.415 266.312 19.485L272.012 35.79C271.672 35.94 271.247 36.055 270.737 36.135C270.227 36.215 269.812 36.255 269.492 36.255C268.962 36.255 268.452 36.155 267.962 35.955C267.482 35.745 267.117 35.215 266.867 34.365L266.432 32.97C266.262 32.98 266.087 32.99 265.907 33C265.737 33 265.572 33 265.412 33H261.392ZM261.977 28.095L261.527 29.46C261.687 29.45 261.847 29.445 262.007 29.445C262.177 29.435 262.342 29.43 262.502 29.43H264.452C264.602 29.43 264.747 29.435 264.887 29.445C265.027 29.445 265.167 29.445 265.307 29.445L264.902 28.185C264.672 27.415 264.437 26.55 264.197 25.59C263.967 24.63 263.752 23.76 263.552 22.98H263.387C263.187 23.73 262.957 24.585 262.697 25.545C262.447 26.495 262.207 27.345 261.977 28.095ZM283.19 26.835C283.19 25.585 283.01 24.565 282.65 23.775C282.3 22.985 281.58 22.59 280.49 22.59C279.39 22.59 278.595 23.04 278.105 23.94C277.625 24.84 277.385 26.145 277.385 27.855C277.385 29.115 277.55 30.1 277.88 30.81C278.21 31.51 278.64 32 279.17 32.28C279.7 32.56 280.265 32.7 280.865 32.7C281.615 32.7 282.365 32.54 283.115 32.22C283.865 31.89 284.545 31.495 285.155 31.035C285.465 31.195 285.76 31.445 286.04 31.785C286.33 32.115 286.58 32.47 286.79 32.85C287 33.23 287.14 33.575 287.21 33.885C286.39 34.595 285.39 35.2 284.21 35.7C283.03 36.19 281.69 36.435 280.19 36.435C278.77 36.435 277.58 36.185 276.62 35.685C275.66 35.185 274.895 34.515 274.325 33.675C273.765 32.835 273.36 31.91 273.11 30.9C272.87 29.88 272.75 28.855 272.75 27.825C272.75 25.775 273.12 24.105 273.86 22.815C274.6 21.525 275.57 20.575 276.77 19.965C277.98 19.355 279.275 19.05 280.655 19.05C282.195 19.05 283.465 19.325 284.465 19.875C285.475 20.415 286.22 21.105 286.7 21.945C287.19 22.775 287.435 23.63 287.435 24.51C287.435 26.14 286.525 26.955 284.705 26.955C284.475 26.955 284.23 26.945 283.97 26.925C283.72 26.895 283.46 26.865 283.19 26.835ZM290.416 19.485C290.776 19.415 291.181 19.37 291.631 19.35C292.091 19.33 292.456 19.32 292.726 19.32C293.026 19.32 293.376 19.33 293.776 19.35C294.176 19.37 294.566 19.415 294.946 19.485V25.71H295.291C295.691 25.71 295.951 25.66 296.071 25.56C296.201 25.45 296.361 25.23 296.551 24.9L298.921 20.79C299.191 20.3 299.481 19.93 299.791 19.68C300.111 19.43 300.621 19.305 301.321 19.305C301.481 19.305 301.726 19.315 302.056 19.335C302.396 19.345 302.746 19.365 303.106 19.395C303.476 19.425 303.786 19.455 304.036 19.485L304.291 19.77L301.141 25.035C300.651 25.885 300.111 26.54 299.521 27C300.291 27.2 300.866 27.535 301.246 28.005C301.626 28.465 301.961 29.035 302.251 29.715L303.361 32.43C303.661 33.15 303.916 33.68 304.126 34.02C304.336 34.36 304.586 34.65 304.876 34.89C304.576 35.28 304.151 35.605 303.601 35.865C303.051 36.115 302.486 36.235 301.906 36.225C301.136 36.215 300.571 36.03 300.211 35.67C299.861 35.31 299.551 34.81 299.281 34.17L297.976 30.945C297.736 30.365 297.476 29.955 297.196 29.715C296.926 29.465 296.541 29.33 296.041 29.31C295.911 29.3 295.751 29.3 295.561 29.31C295.371 29.32 295.166 29.33 294.946 29.34V36C294.566 36.07 294.176 36.115 293.776 36.135C293.376 36.155 293.026 36.165 292.726 36.165C292.456 36.165 292.091 36.155 291.631 36.135C291.181 36.115 290.776 36.07 290.416 36V19.485ZM320.034 32.4C320.034 33.77 319.819 34.72 319.389 35.25C318.959 35.78 318.239 36.045 317.229 36.045H310.209C309.399 36.045 308.759 35.815 308.289 35.355C307.819 34.895 307.584 34.27 307.584 33.48V19.665L307.764 19.485H319.479C319.549 19.815 319.589 20.13 319.599 20.43C319.609 20.73 319.614 21.01 319.614 21.27C319.614 21.52 319.584 21.81 319.524 22.14C319.474 22.47 319.389 22.8 319.269 23.13H313.899C313.469 23.13 312.844 23.125 312.024 23.115C312.024 23.415 312.029 23.68 312.039 23.91C312.049 24.13 312.054 24.395 312.054 24.705V25.935C312.864 25.915 313.479 25.905 313.899 25.905H317.874C317.964 26.175 318.024 26.475 318.054 26.805C318.094 27.135 318.114 27.415 318.114 27.645C318.114 27.905 318.094 28.205 318.054 28.545C318.024 28.875 317.964 29.17 317.874 29.43H313.899C313.719 29.43 313.459 29.43 313.119 29.43C312.779 29.43 312.424 29.43 312.054 29.43V30.705C312.054 31.055 312.049 31.35 312.039 31.59C312.029 31.83 312.024 32.12 312.024 32.46V32.49C312.364 32.46 312.679 32.44 312.969 32.43C313.269 32.41 313.634 32.4 314.064 32.4H320.034ZM336.68 24.495C336.68 25.245 336.505 25.925 336.155 26.535C335.815 27.135 335.38 27.63 334.85 28.02C334.33 28.4 333.8 28.65 333.26 28.77C333.79 28.96 334.23 29.235 334.58 29.595C334.94 29.955 335.245 30.425 335.495 31.005L336.32 32.895C336.5 33.295 336.705 33.67 336.935 34.02C337.165 34.36 337.415 34.65 337.685 34.89C337.405 35.24 336.985 35.56 336.425 35.85C335.875 36.13 335.275 36.27 334.625 36.27C333.975 36.27 333.455 36.115 333.065 35.805C332.675 35.485 332.325 34.975 332.015 34.275L330.68 31.215C330.46 30.715 330.19 30.4 329.87 30.27C329.56 30.14 329.145 30.075 328.625 30.075H327.86V36C327.48 36.07 327.085 36.115 326.675 36.135C326.275 36.155 325.93 36.165 325.64 36.165C325.37 36.165 325.015 36.155 324.575 36.135C324.135 36.115 323.735 36.07 323.375 36V19.635L323.555 19.455C324.735 19.425 325.85 19.4 326.9 19.38C327.95 19.36 328.995 19.35 330.035 19.35C331.245 19.35 332.35 19.51 333.35 19.83C334.36 20.15 335.165 20.685 335.765 21.435C336.375 22.185 336.68 23.205 336.68 24.495ZM327.86 22.605V26.67C328.23 26.66 328.575 26.655 328.895 26.655C329.225 26.645 329.47 26.64 329.63 26.64C330.58 26.64 331.22 26.435 331.55 26.025C331.89 25.605 332.06 25.125 332.06 24.585C332.06 24.065 331.89 23.61 331.55 23.22C331.22 22.83 330.645 22.635 329.825 22.635C329.465 22.635 329.14 22.63 328.85 22.62C328.56 22.61 328.23 22.605 327.86 22.605Z" fill="#9429FF"/>
</g>
<g filter="url(#filter1_d_5_37)">
<path d="M45.9899 3.87245C48.8857 -0.235119 54.586 -1.23338 58.7218 1.64277L85.101 19.9878C89.2367 22.864 90.2418 28.5254 87.346 32.633L77.4825 46.6234C74.5866 50.731 68.8864 51.7292 64.7506 48.8531L38.3714 30.508C34.2356 27.6319 33.2305 21.9705 36.1264 17.8629L45.9899 3.87245Z" fill="#9429FF" style="mix-blend-mode:darken" shape-rendering="crispEdges"/>
<path d="M29.9919 3.87245C32.8878 -0.235119 38.588 -1.23338 42.7238 1.64277L69.103 19.9878C73.2388 22.864 74.2439 28.5254 71.348 32.633L61.4846 46.6234C58.5887 50.731 52.8884 51.7292 48.7526 48.8531L22.3734 30.508C18.2377 27.6319 17.2326 21.9705 20.1284 17.8629L29.9919 3.87245Z" fill="#4ABFFB" style="mix-blend-mode:plus-darker" shape-rendering="crispEdges"/>
<path d="M15.5175 5.37658C18.4134 1.26902 24.1136 0.270756 28.2494 3.1469L54.6286 21.492C58.7644 24.3681 59.7695 30.0295 56.8736 34.1371L47.0102 48.1276C44.1143 52.2351 38.414 53.2334 34.2782 50.3572L7.89902 32.0122C3.76327 29.136 2.75816 23.4746 5.65404 19.367L15.5175 5.37658Z" fill="#433AFF" style="mix-blend-mode:darken" shape-rendering="crispEdges"/>
</g>
<defs>
<filter id="filter0_d_5_37" x="104.178" y="15.345" width="237.507" height="29.09" filterUnits="userSpaceOnUse" color-interpolation-filters="sRGB">
<feFlood flood-opacity="0" result="BackgroundImageFix"/>
<feColorMatrix in="SourceAlpha" type="matrix" values="0 0 0 0 0 0 0 0 0 0 0 0 0 0 0 0 0 0 127 0" result="hardAlpha"/>
<feOffset dy="4"/>
<feGaussianBlur stdDeviation="2"/>
<feComposite in2="hardAlpha" operator="out"/>
<feColorMatrix type="matrix" values="0 0 0 0 0.325507 0 0 0 0 0.493742 0 0 0 0 0.926346 0 0 0 0.25 0"/>
<feBlend mode="normal" in2="BackgroundImageFix" result="effect1_dropShadow_5_37"/>
<feBlend mode="normal" in="SourceGraphic" in2="effect1_dropShadow_5_37" result="shape"/>
</filter>
<filter id="filter1_d_5_37" x="0" y="0" width="93" height="60" filterUnits="userSpaceOnUse" color-interpolation-filters="sRGB">
<feFlood flood-opacity="0" result="BackgroundImageFix"/>
<feColorMatrix in="SourceAlpha" type="matrix" values="0 0 0 0 0 0 0 0 0 0 0 0 0 0 0 0 0 0 127 0" result="hardAlpha"/>
<feOffset dy="4"/>
<feGaussianBlur stdDeviation="2"/>
<feComposite in2="hardAlpha" operator="out"/>
<feColorMatrix type="matrix" values="0 0 0 0 0 0 0 0 0 0 0 0 0 0 0 0 0 0 0.25 0"/>
<feBlend mode="normal" in2="BackgroundImageFix" result="effect1_dropShadow_5_37"/>
<feBlend mode="normal" in="SourceGraphic" in2="effect1_dropShadow_5_37" result="shape"/>
</filter>
</defs>
</svg>
