<svg width="85" height="85" viewBox="0 0 85 85" fill="none" xmlns="http://www.w3.org/2000/svg">
<rect width="85" height="85" fill="#F5F5F5"/>
<g id="MacBook Pro 14&#34; - 1" clip-path="url(#clip0_0_1)">
<rect width="1512" height="982" transform="translate(-466 -188)" fill="white"/>
<path id="Rectangle 2" d="M-60 -43C-60 -49.6274 -54.6274 -55 -48 -55H1035C1041.63 -55 1047 -49.6274 1047 -43V795H-60V-43Z" fill="#E6CCCC"/>
<g id="progess 2">
<rect id="Rectangle 9" x="-29" y="-28" width="318" height="141" rx="14" fill="white"/>
<g id="Group 2">
<circle id="Ellipse 1" cx="42.5" cy="42.5" r="42.5" fill="#DEF1FF"/>
<path id="Vector" d="M52.1622 18.0009C52.1202 18.0051 52.0787 18.0128 52.0381 18.0237L49.0554 18.7863C48.8636 18.8354 48.7001 18.9552 48.601 19.1192C48.5018 19.2832 48.4751 19.478 48.5267 19.6608C48.5782 19.8436 48.7039 19.9993 48.876 20.0938C49.0481 20.1883 49.2525 20.2138 49.4443 20.1647L50.6634 19.8511C45.4161 28.1057 33.529 38.0936 21.6029 40.3457C21.4082 40.3826 21.2367 40.4917 21.1263 40.649C21.0159 40.8063 20.9757 40.999 21.0143 41.1846C21.053 41.3702 21.1675 41.5336 21.3326 41.6388C21.4977 41.7439 21.6998 41.7823 21.8946 41.7455C34.4743 39.3693 46.5051 29.1904 51.9722 20.5424L52.3043 21.7312C52.3555 21.914 52.4808 22.0699 52.6526 22.1647C52.7377 22.2116 52.8316 22.2421 52.929 22.2544C53.0265 22.2667 53.1255 22.2607 53.2205 22.2365C53.3155 22.2124 53.4045 22.1706 53.4826 22.1137C53.5606 22.0567 53.6261 21.9857 53.6754 21.9046C53.7246 21.8236 53.7566 21.734 53.7695 21.6412C53.7825 21.5483 53.7761 21.454 53.7508 21.3634L52.9535 18.5269C52.9107 18.3767 52.8175 18.244 52.6881 18.149C52.5588 18.054 52.4003 18.002 52.237 18.0009C52.2121 17.9997 52.1871 17.9997 52.1622 18.0009ZM49.7899 28.0957C49.5915 28.0957 49.4013 28.1708 49.261 28.3044C49.1208 28.4381 49.042 28.6194 49.042 28.8084V41.8082C49.5258 41.6069 50.0261 41.4434 50.5378 41.3193V29.5211H53.5294V38.0736C53.9261 38.0736 54.3065 38.2238 54.5871 38.4911C54.8676 38.7584 55.0252 39.121 55.0252 39.499V28.8084C55.0252 28.6194 54.9464 28.4381 54.8061 28.3044C54.6659 28.1708 54.4756 28.0957 54.2773 28.0957H49.7899ZM40.815 36.6425V36.6482C40.6167 36.6482 40.4265 36.7233 40.2862 36.8569C40.1459 36.9906 40.0671 37.1719 40.0671 37.3609V49.4769C40.0669 49.3344 40.0891 49.1927 40.133 49.0564C40.1631 48.966 40.2027 48.8786 40.2511 48.7956C40.3795 48.5707 40.5691 48.383 40.7999 48.2521C41.0308 48.1211 41.2943 48.0519 41.5629 48.0515V38.0793H44.5546V45.5399C44.9719 44.8671 45.4715 44.2471 46.0504 43.7026V37.3694C46.0504 37.1804 45.9716 36.9991 45.8313 36.8655C45.691 36.7318 45.5008 36.6567 45.3025 36.6567L40.815 36.6425ZM52.0336 39.499V42.3826C50.1196 42.5524 48.3281 43.3544 46.9692 44.6499C45.6102 45.9455 44.7693 47.653 44.592 49.4769H41.5629V50.9024H44.592C44.77 52.7258 45.6112 54.4326 46.9701 55.7276C48.329 57.0225 50.1201 57.8242 52.0336 57.9938V60.8803H53.5294V57.9938C55.4426 57.8238 57.2334 57.0221 58.592 55.7272C59.9505 54.4322 60.7915 52.7256 60.9695 50.9024H64V49.4769H60.968C60.7907 47.6532 59.95 45.9459 58.5914 44.6504C57.2327 43.3549 55.4416 42.5527 53.5279 42.3826V39.499H52.0336ZM31.8402 42.4696C31.6419 42.4696 31.4516 42.5447 31.3114 42.6783C31.1711 42.812 31.0923 42.9933 31.0923 43.1823V60.2873C31.0923 60.4763 31.1711 60.6576 31.3114 60.7913C31.4516 60.9249 31.6419 61 31.8402 61H36.3276C36.526 61 36.7162 60.9249 36.8565 60.7913C36.9967 60.6576 37.0755 60.4763 37.0755 60.2873V43.1823C37.0755 42.9933 36.9967 42.812 36.8565 42.6783C36.7162 42.5447 36.526 42.4696 36.3276 42.4696H31.8402ZM52.0336 43.8451V45.2734C50.9212 45.4281 49.891 45.9207 49.096 46.6781C48.301 47.4354 47.7837 48.417 47.621 49.4769H46.1251C46.2896 48.0373 46.9649 46.6943 48.0393 45.6702C49.1138 44.6461 50.5229 44.0022 52.0336 43.8451ZM53.5294 43.8451C55.0398 44.0025 56.4486 44.6465 57.5227 45.6706C58.5968 46.6947 59.2719 48.0375 59.4363 49.4769H57.9405C57.7781 48.4167 57.2609 47.4348 56.4658 46.6772C55.6708 45.9196 54.6404 45.4268 53.5279 45.272L53.5294 43.8451ZM32.5881 43.895H35.5797V59.5746H32.5881V43.895ZM22.8654 45.3204C22.667 45.3204 22.4768 45.3955 22.3366 45.5292C22.1963 45.6628 22.1175 45.8441 22.1175 46.0331V60.2873C22.1175 60.4763 22.1963 60.6576 22.3366 60.7913C22.4768 60.9249 22.667 61 22.8654 61H27.3528C27.5512 61 27.7414 60.9249 27.8817 60.7913C28.0219 60.6576 28.1007 60.4763 28.1007 60.2873V46.0331C28.1007 45.8441 28.0219 45.6628 27.8817 45.5292C27.7414 45.3955 27.5512 45.3204 27.3528 45.3204H22.8654ZM52.0246 46.6959H52.0336V48.1827C51.7215 48.2901 51.4381 48.4618 51.2036 48.6855C50.9691 48.9092 50.7893 49.1794 50.6769 49.4769H49.1168C49.2606 48.7922 49.6132 48.1631 50.1305 47.6684C50.6477 47.1738 51.3066 46.8355 52.0246 46.6959ZM53.5294 46.6959C54.2488 46.8342 54.9093 47.172 55.4279 47.6667C55.9466 48.1615 56.3003 48.7913 56.4447 49.4769H54.8846C54.7723 49.1796 54.5927 48.9094 54.3585 48.6857C54.1242 48.462 53.8412 48.2903 53.5294 48.1827V46.6959ZM23.6133 46.7458H26.6049V59.5746H23.6133V46.7458ZM40.0671 50.9024V60.1619C40.0671 60.3509 40.1459 60.5322 40.2862 60.6658C40.4265 60.7995 40.6167 60.8746 40.815 60.8746L45.3025 60.8603C45.5008 60.8603 45.691 60.7852 45.8313 60.6516C45.9716 60.5179 46.0504 60.3366 46.0504 60.1476V56.6667C45.4709 56.1176 44.9681 55.4996 44.5546 54.8279V59.4392H41.5629V52.3235C41.1673 52.3235 40.7877 52.1741 40.5074 51.908C40.227 51.6419 40.0687 51.2794 40.0671 50.9024ZM46.1251 50.9024H47.621C47.7838 51.9624 48.3012 52.944 49.0961 53.7016C49.8911 54.4591 50.9212 54.9521 52.0336 55.1073V56.5327C50.5231 56.3757 49.1142 55.732 48.0398 54.7082C46.9654 53.6844 46.2899 52.3417 46.1251 50.9024ZM49.1168 50.9024H50.6769C50.9042 51.5024 51.4023 51.9785 52.0336 52.1938V53.6805C51.3143 53.5427 50.6538 53.2055 50.1349 52.7112C49.6159 52.217 49.2618 51.5877 49.1168 50.9024ZM54.8846 50.9024H56.4447C56.3 51.588 55.9459 52.2175 55.427 52.7121C54.908 53.2066 54.2473 53.544 53.5279 53.6819V52.1938C53.8396 52.0865 54.1227 51.9153 54.3572 51.6921C54.5916 51.4689 54.7717 51.1993 54.8846 50.9024ZM57.9405 50.9024H59.4363C59.2715 52.3417 58.5961 53.6844 57.5217 54.7082C56.4473 55.732 55.0383 56.3757 53.5279 56.5327V55.1073C54.6402 54.9521 55.6704 54.4591 56.4653 53.7016C57.2603 52.944 57.7776 51.9624 57.9405 50.9024ZM49.0405 58.5668V60.1619C49.0405 60.3509 49.1193 60.5322 49.2595 60.6658C49.3998 60.7995 49.59 60.8746 49.7884 60.8746H50.5363V59.0543C50.0247 58.9306 49.5244 58.7676 49.0405 58.5668Z" fill="url(#paint0_linear_0_1)"/>
</g>
</g>
</g>
<defs>
<linearGradient id="paint0_linear_0_1" x1="21.0001" y1="39.5004" x2="61.0428" y2="39.5004" gradientUnits="userSpaceOnUse">
<stop stop-color="#433AFF"/>
<stop offset="1" stop-color="#9429FF"/>
</linearGradient>
<clipPath id="clip0_0_1">
<rect width="1512" height="982" fill="white" transform="translate(-466 -188)"/>
</clipPath>
</defs>
</svg>
