<svg width="40" height="40" viewBox="0 0 40 40" fill="none" xmlns="http://www.w3.org/2000/svg">
<path d="M30.5474 14.539C27.8526 3.99971 20.8 0.27998 20.5053 0.119991C20.3498 0.0412093 20.1762 0 20 0C19.8238 0 19.6502 0.0412093 19.4947 0.119991C19.1368 0.319977 12.0632 4.1197 9.41053 14.579C6.86316 16.5588 0 22.3184 0 26.9981C0 27.2633 0.110902 27.5176 0.308309 27.7051C0.505716 27.8926 0.773456 27.998 1.05263 27.998H8.42105V30.9978C8.42105 31.263 8.53195 31.5173 8.72936 31.7048C8.92677 31.8924 9.19451 31.9977 9.47368 31.9977H30.5263C30.8055 31.9977 31.0732 31.8924 31.2706 31.7048C31.468 31.5173 31.5789 31.263 31.5789 30.9978V27.998H38.9474C39.2265 27.998 39.4943 27.8926 39.6917 27.7051C39.8891 27.5176 40 27.2633 40 26.9981C40 22.2984 33.0737 16.5188 30.5474 14.539ZM22.1053 25.9981H17.8947C17.6156 25.9981 17.3478 25.8928 17.1504 25.7053C16.953 25.5177 16.8421 25.2634 16.8421 24.9982C16.8421 24.733 16.953 24.4787 17.1504 24.2912C17.3478 24.1036 17.6156 23.9983 17.8947 23.9983H22.1053C22.3844 23.9983 22.6522 24.1036 22.8496 24.2912C23.047 24.4787 23.1579 24.733 23.1579 24.9982C23.1579 25.2634 23.047 25.5177 22.8496 25.7053C22.6522 25.8928 22.3844 25.9981 22.1053 25.9981ZM20 21.9984C18.959 21.9984 17.9415 21.7052 17.0759 21.1558C16.2104 20.6065 15.5358 19.8256 15.1375 18.9121C14.7391 17.9985 14.6349 16.9932 14.838 16.0234C15.0411 15.0536 15.5423 14.1627 16.2784 13.4635C17.0145 12.7643 17.9523 12.2881 18.9732 12.0952C19.9942 11.9023 21.0524 12.0013 22.0141 12.3797C22.9758 12.7581 23.7978 13.3989 24.3762 14.2211C24.9545 15.0433 25.2632 16.0099 25.2632 16.9988C25.2632 18.3248 24.7086 19.5964 23.7216 20.5341C22.7346 21.4717 21.3959 21.9984 20 21.9984ZM28.4211 33.9976C28.1419 33.9976 27.8741 34.1029 27.6767 34.2904C27.4793 34.478 27.3684 34.7323 27.3684 34.9975V36.9973C27.3684 37.2625 27.4793 37.5169 27.6767 37.7044C27.8741 37.8919 28.1419 37.9973 28.4211 37.9973C28.7002 37.9973 28.968 37.8919 29.1654 37.7044C29.3628 37.5169 29.4737 37.2625 29.4737 36.9973V34.9975C29.4737 34.7323 29.3628 34.478 29.1654 34.2904C28.968 34.1029 28.7002 33.9976 28.4211 33.9976ZM11.5789 33.9976C11.2998 33.9976 11.032 34.1029 10.8346 34.2904C10.6372 34.478 10.5263 34.7323 10.5263 34.9975V36.9973C10.5263 37.2625 10.6372 37.5169 10.8346 37.7044C11.032 37.8919 11.2998 37.9973 11.5789 37.9973C11.8581 37.9973 12.1259 37.8919 12.3233 37.7044C12.5207 37.5169 12.6316 37.2625 12.6316 36.9973V34.9975C12.6316 34.7323 12.5207 34.478 12.3233 34.2904C12.1259 34.1029 11.8581 33.9976 11.5789 33.9976ZM19.3053 39.7372C19.4929 39.9059 19.7416 40 20 40C20.2584 40 20.5071 39.9059 20.6947 39.7372C22.4778 38.1439 23.8471 36.1791 24.6947 33.9976H15.3053C16.1529 36.1791 17.5222 38.1439 19.3053 39.7372Z" fill="white"/>
</svg>
