<svg width="93" height="60" viewBox="0 0 93 60" fill="none" xmlns="http://www.w3.org/2000/svg">
<rect width="93" height="60" fill="#F5F5F5"/>
<g id="MacBook Pro 14&#34; - 1" clip-path="url(#clip0_0_1)">
<rect width="1512" height="982" transform="translate(-13 -39)" fill="white"/>
<rect id="Rectangle 1" x="-13" y="-39" width="368" height="982" fill="white"/>
<g id="Rectangle 3">
<path d="M-13 -39H355V94H-13V-39Z" fill="white"/>
<path d="M355 93H-13V95H355V93Z" fill="#A8DFD9"/>
</g>
<g id="Group 1">
<g id="Vector" filter="url(#filter0_d_0_1)">
<path d="M45.9899 3.87245C48.8857 -0.235119 54.586 -1.23338 58.7218 1.64277L85.101 19.9878C89.2367 22.864 90.2418 28.5254 87.346 32.633L77.4825 46.6234C74.5866 50.731 68.8864 51.7292 64.7506 48.8531L38.3714 30.508C34.2356 27.6319 33.2305 21.9705 36.1264 17.8629L45.9899 3.87245Z" fill="#9429FF" style="mix-blend-mode:darken" shape-rendering="crispEdges"/>
<path d="M29.9919 3.87245C32.8878 -0.235119 38.588 -1.23338 42.7238 1.64277L69.103 19.9878C73.2388 22.864 74.2439 28.5254 71.348 32.633L61.4846 46.6234C58.5887 50.731 52.8884 51.7292 48.7526 48.8531L22.3734 30.508C18.2377 27.6319 17.2326 21.9705 20.1284 17.8629L29.9919 3.87245Z" fill="#4ABFFB" style="mix-blend-mode:plus-darker" shape-rendering="crispEdges"/>
<path d="M15.5175 5.37658C18.4134 1.26902 24.1136 0.270756 28.2494 3.1469L54.6286 21.492C58.7644 24.3681 59.7695 30.0295 56.8736 34.1371L47.0102 48.1276C44.1143 52.2351 38.414 53.2334 34.2782 50.3572L7.89902 32.0122C3.76327 29.136 2.75816 23.4746 5.65404 19.367L15.5175 5.37658Z" fill="#433AFF" style="mix-blend-mode:darken" shape-rendering="crispEdges"/>
</g>
</g>
</g>
<defs>
<filter id="filter0_d_0_1" x="0" y="0" width="93" height="60" filterUnits="userSpaceOnUse" color-interpolation-filters="sRGB">
<feFlood flood-opacity="0" result="BackgroundImageFix"/>
<feColorMatrix in="SourceAlpha" type="matrix" values="0 0 0 0 0 0 0 0 0 0 0 0 0 0 0 0 0 0 127 0" result="hardAlpha"/>
<feOffset dy="4"/>
<feGaussianBlur stdDeviation="2"/>
<feComposite in2="hardAlpha" operator="out"/>
<feColorMatrix type="matrix" values="0 0 0 0 0 0 0 0 0 0 0 0 0 0 0 0 0 0 0.25 0"/>
<feBlend mode="normal" in2="BackgroundImageFix" result="effect1_dropShadow_0_1"/>
<feBlend mode="normal" in="SourceGraphic" in2="effect1_dropShadow_0_1" result="shape"/>
</filter>
<clipPath id="clip0_0_1">
<rect width="1512" height="982" fill="white" transform="translate(-13 -39)"/>
</clipPath>
</defs>
</svg>
